<svg width="1920" height="1080" viewBox="0 0 1920 1080" fill="none" xmlns="http://www.w3.org/2000/svg">
<g clip-path="url(#clip0_48_182)">
<rect width="1920" height="1080" fill="url(#paint0_linear_48_182)"/>
<path fill-rule="evenodd" clip-rule="evenodd" d="M315.039 385.462C361.867 385.462 483.315 340.612 483.315 290.246C483.315 281.247 478.924 271.959 471.443 262.771C492.014 278.455 506 295.437 506 311.496C506 361.863 384.551 406.713 337.724 406.713C317.838 406.713 313.384 398.625 314.841 385.462C314.907 385.462 314.973 385.462 315.039 385.462ZM314.841 385.462C284.929 385.381 290.223 366.833 297.816 340.229C302.031 325.457 306.956 308.202 306.956 290.246C306.956 270.238 298.297 248.797 290.795 230.218C279.411 202.029 270.689 180.431 298.914 180.431C337.375 180.431 437.053 220.534 471.443 262.771C427.497 229.264 353.496 201.681 321.599 201.681C293.373 201.681 302.096 223.28 313.479 251.469C320.982 270.047 329.641 291.489 329.641 311.496C329.641 329.453 324.716 346.708 320.5 361.48C317.913 370.547 315.592 378.678 314.841 385.462Z" fill="white" fill-opacity="0.05"/>
<path d="M403.705 316.798C521.04 -88.7294 468.482 308.669 393.774 406.807C393.774 401.907 394.586 406.807 388.684 406.807C382.782 406.807 377.998 401.219 377.998 394.325C292.634 -40.1592 397.803 316.798 403.705 316.798Z" fill="white" fill-opacity="0.05"/>
<path fill-rule="evenodd" clip-rule="evenodd" d="M315.039 654.462C361.867 654.462 483.315 609.612 483.315 559.246C483.315 550.247 478.924 540.959 471.443 531.771C492.014 547.455 506 564.437 506 580.496C506 630.863 384.551 675.713 337.724 675.713C317.838 675.713 313.384 667.625 314.841 654.462C314.907 654.462 314.973 654.462 315.039 654.462ZM314.841 654.462C284.929 654.381 290.223 635.833 297.816 609.229C302.031 594.457 306.956 577.202 306.956 559.246C306.956 539.238 298.297 517.797 290.795 499.218C279.411 471.029 270.689 449.431 298.914 449.431C337.375 449.431 437.053 489.534 471.443 531.771C427.497 498.264 353.496 470.681 321.599 470.681C293.373 470.681 302.096 492.28 313.479 520.469C320.982 539.047 329.641 560.489 329.641 580.496C329.641 598.453 324.716 615.708 320.5 630.48C317.913 639.547 315.592 647.678 314.841 654.462Z" fill="white" fill-opacity="0.05"/>
<path d="M403.705 585.798C521.04 180.271 468.482 577.669 393.774 675.807C393.774 670.907 394.586 675.807 388.684 675.807C382.782 675.807 377.998 670.219 377.998 663.325C292.634 228.841 397.803 585.798 403.705 585.798Z" fill="white" fill-opacity="0.05"/>
<path fill-rule="evenodd" clip-rule="evenodd" d="M315.039 923.462C361.867 923.462 483.315 878.612 483.315 828.246C483.315 819.247 478.924 809.959 471.443 800.771C492.014 816.455 506 833.437 506 849.496C506 899.863 384.551 944.713 337.724 944.713C317.838 944.713 313.384 936.625 314.841 923.462C314.907 923.462 314.973 923.462 315.039 923.462ZM314.841 923.462C284.929 923.381 290.223 904.833 297.816 878.229C302.031 863.457 306.956 846.202 306.956 828.246C306.956 808.238 298.297 786.797 290.795 768.218C279.411 740.029 270.689 718.431 298.914 718.431C337.375 718.431 437.053 758.534 471.443 800.771C427.497 767.264 353.496 739.681 321.599 739.681C293.373 739.681 302.096 761.28 313.479 789.469C320.982 808.047 329.641 829.489 329.641 849.496C329.641 867.453 324.716 884.708 320.5 899.48C317.913 908.547 315.592 916.678 314.841 923.462Z" fill="white" fill-opacity="0.05"/>
<path d="M403.705 854.798C521.04 449.271 468.482 846.669 393.774 944.807C393.774 939.907 394.586 944.807 388.684 944.807C382.782 944.807 377.998 939.219 377.998 932.325C292.634 497.841 397.803 854.798 403.705 854.798Z" fill="white" fill-opacity="0.05"/>
<path fill-rule="evenodd" clip-rule="evenodd" d="M604.039 385.462C650.867 385.462 772.315 340.612 772.315 290.246C772.315 281.247 767.924 271.959 760.443 262.771C781.014 278.455 795 295.437 795 311.496C795 361.863 673.551 406.713 626.724 406.713C606.838 406.713 602.384 398.625 603.841 385.462C603.907 385.462 603.973 385.462 604.039 385.462ZM603.841 385.462C573.929 385.381 579.223 366.833 586.816 340.229C591.031 325.457 595.956 308.202 595.956 290.246C595.956 270.238 587.297 248.797 579.795 230.218C568.411 202.029 559.689 180.431 587.914 180.431C626.375 180.431 726.053 220.534 760.443 262.771C716.497 229.264 642.496 201.681 610.599 201.681C582.373 201.681 591.096 223.28 602.479 251.469C609.982 270.047 618.641 291.489 618.641 311.496C618.641 329.453 613.716 346.708 609.5 361.48C606.913 370.547 604.592 378.678 603.841 385.462Z" fill="white" fill-opacity="0.05"/>
<path d="M692.705 316.798C810.04 -88.7294 757.482 308.669 682.774 406.807C682.774 401.907 683.586 406.807 677.684 406.807C671.782 406.807 666.998 401.219 666.998 394.325C581.634 -40.1592 686.803 316.798 692.705 316.798Z" fill="white" fill-opacity="0.05"/>
<path fill-rule="evenodd" clip-rule="evenodd" d="M604.039 654.462C650.867 654.462 772.315 609.612 772.315 559.246C772.315 550.247 767.924 540.959 760.443 531.771C781.014 547.455 795 564.437 795 580.496C795 630.863 673.551 675.713 626.724 675.713C606.838 675.713 602.384 667.625 603.841 654.462C603.907 654.462 603.973 654.462 604.039 654.462ZM603.841 654.462C573.929 654.381 579.223 635.833 586.816 609.229C591.031 594.457 595.956 577.202 595.956 559.246C595.956 539.238 587.297 517.797 579.795 499.218C568.411 471.029 559.689 449.431 587.914 449.431C626.375 449.431 726.053 489.534 760.443 531.771C716.497 498.264 642.496 470.681 610.599 470.681C582.373 470.681 591.096 492.28 602.479 520.469C609.982 539.047 618.641 560.489 618.641 580.496C618.641 598.453 613.716 615.708 609.5 630.48C606.913 639.547 604.592 647.678 603.841 654.462Z" fill="white" fill-opacity="0.05"/>
<path d="M692.705 585.798C810.04 180.271 757.482 577.669 682.774 675.807C682.774 670.907 683.586 675.807 677.684 675.807C671.782 675.807 666.998 670.219 666.998 663.325C581.634 228.841 686.803 585.798 692.705 585.798Z" fill="white" fill-opacity="0.05"/>
<path fill-rule="evenodd" clip-rule="evenodd" d="M604.039 923.462C650.867 923.462 772.315 878.612 772.315 828.246C772.315 819.247 767.924 809.959 760.443 800.771C781.014 816.455 795 833.437 795 849.496C795 899.863 673.551 944.713 626.724 944.713C606.838 944.713 602.384 936.625 603.841 923.462C603.907 923.462 603.973 923.462 604.039 923.462ZM603.841 923.462C573.929 923.381 579.223 904.833 586.816 878.229C591.031 863.457 595.956 846.202 595.956 828.246C595.956 808.238 587.297 786.797 579.795 768.218C568.411 740.029 559.689 718.431 587.914 718.431C626.375 718.431 726.053 758.534 760.443 800.771C716.497 767.264 642.496 739.681 610.599 739.681C582.373 739.681 591.096 761.28 602.479 789.469C609.982 808.047 618.641 829.489 618.641 849.496C618.641 867.453 613.716 884.708 609.5 899.48C606.913 908.547 604.592 916.678 603.841 923.462Z" fill="white" fill-opacity="0.05"/>
<path d="M692.705 854.798C810.04 449.271 757.482 846.669 682.774 944.807C682.774 939.907 683.586 944.807 677.684 944.807C671.782 944.807 666.998 939.219 666.998 932.325C581.634 497.841 686.803 854.798 692.705 854.798Z" fill="white" fill-opacity="0.05"/>
<path fill-rule="evenodd" clip-rule="evenodd" d="M893.039 385.462C939.867 385.462 1061.32 340.612 1061.32 290.246C1061.32 281.247 1056.92 271.959 1049.44 262.771C1070.01 278.455 1084 295.437 1084 311.496C1084 361.863 962.551 406.713 915.724 406.713C895.838 406.713 891.384 398.625 892.841 385.462C892.907 385.462 892.973 385.462 893.039 385.462ZM892.841 385.462C862.929 385.381 868.223 366.833 875.816 340.229C880.031 325.457 884.956 308.202 884.956 290.246C884.956 270.238 876.297 248.797 868.795 230.218C857.411 202.029 848.689 180.431 876.914 180.431C915.375 180.431 1015.05 220.534 1049.44 262.771C1005.5 229.264 931.496 201.681 899.599 201.681C871.373 201.681 880.096 223.28 891.479 251.469C898.982 270.047 907.641 291.489 907.641 311.496C907.641 329.453 902.716 346.708 898.5 361.48C895.913 370.547 893.592 378.678 892.841 385.462Z" fill="white" fill-opacity="0.05"/>
<path d="M981.705 316.798C1099.04 -88.7294 1046.48 308.669 971.774 406.807C971.774 401.907 972.586 406.807 966.684 406.807C960.782 406.807 955.998 401.219 955.998 394.325C870.634 -40.1592 975.803 316.798 981.705 316.798Z" fill="white" fill-opacity="0.05"/>
<path fill-rule="evenodd" clip-rule="evenodd" d="M893.039 654.462C939.867 654.462 1061.32 609.612 1061.32 559.246C1061.32 550.247 1056.92 540.959 1049.44 531.771C1070.01 547.455 1084 564.437 1084 580.496C1084 630.863 962.551 675.713 915.724 675.713C895.838 675.713 891.384 667.625 892.841 654.462C892.907 654.462 892.973 654.462 893.039 654.462ZM892.841 654.462C862.929 654.381 868.223 635.833 875.816 609.229C880.031 594.457 884.956 577.202 884.956 559.246C884.956 539.238 876.297 517.797 868.795 499.218C857.411 471.029 848.689 449.431 876.914 449.431C915.375 449.431 1015.05 489.534 1049.44 531.771C1005.5 498.264 931.496 470.681 899.599 470.681C871.373 470.681 880.096 492.28 891.479 520.469C898.982 539.047 907.641 560.489 907.641 580.496C907.641 598.453 902.716 615.708 898.5 630.48C895.913 639.547 893.592 647.678 892.841 654.462Z" fill="white" fill-opacity="0.05"/>
<path d="M981.705 585.798C1099.04 180.271 1046.48 577.669 971.774 675.807C971.774 670.907 972.586 675.807 966.684 675.807C960.782 675.807 955.998 670.219 955.998 663.325C870.634 228.841 975.803 585.798 981.705 585.798Z" fill="white" fill-opacity="0.05"/>
<path fill-rule="evenodd" clip-rule="evenodd" d="M893.039 923.462C939.867 923.462 1061.32 878.612 1061.32 828.246C1061.32 819.247 1056.92 809.959 1049.44 800.771C1070.01 816.455 1084 833.437 1084 849.496C1084 899.863 962.551 944.713 915.724 944.713C895.838 944.713 891.384 936.625 892.841 923.462C892.907 923.462 892.973 923.462 893.039 923.462ZM892.841 923.462C862.929 923.381 868.223 904.833 875.816 878.229C880.031 863.457 884.956 846.202 884.956 828.246C884.956 808.238 876.297 786.797 868.795 768.218C857.411 740.029 848.689 718.431 876.914 718.431C915.375 718.431 1015.05 758.534 1049.44 800.771C1005.5 767.264 931.496 739.681 899.599 739.681C871.373 739.681 880.096 761.28 891.479 789.469C898.982 808.047 907.641 829.489 907.641 849.496C907.641 867.453 902.716 884.708 898.5 899.48C895.913 908.547 893.592 916.678 892.841 923.462Z" fill="white" fill-opacity="0.05"/>
<path d="M981.705 854.798C1099.04 449.271 1046.48 846.669 971.774 944.807C971.774 939.907 972.586 944.807 966.684 944.807C960.782 944.807 955.998 939.219 955.998 932.325C870.634 497.841 975.803 854.798 981.705 854.798Z" fill="white" fill-opacity="0.05"/>
<path fill-rule="evenodd" clip-rule="evenodd" d="M1182.04 385.462C1228.87 385.462 1350.32 340.612 1350.32 290.246C1350.32 281.247 1345.92 271.959 1338.44 262.771C1359.01 278.455 1373 295.437 1373 311.496C1373 361.863 1251.55 406.713 1204.72 406.713C1184.84 406.713 1180.38 398.625 1181.84 385.462C1181.91 385.462 1181.97 385.462 1182.04 385.462ZM1181.84 385.462C1151.93 385.381 1157.22 366.833 1164.82 340.229C1169.03 325.457 1173.96 308.202 1173.96 290.246C1173.96 270.238 1165.3 248.797 1157.79 230.218C1146.41 202.029 1137.69 180.431 1165.91 180.431C1204.38 180.431 1304.05 220.534 1338.44 262.771C1294.5 229.264 1220.5 201.681 1188.6 201.681C1160.37 201.681 1169.1 223.28 1180.48 251.469C1187.98 270.047 1196.64 291.489 1196.64 311.496C1196.64 329.453 1191.72 346.708 1187.5 361.48C1184.91 370.547 1182.59 378.678 1181.84 385.462Z" fill="white" fill-opacity="0.05"/>
<path d="M1270.71 316.798C1388.04 -88.7294 1335.48 308.669 1260.77 406.807C1260.77 401.907 1261.59 406.807 1255.68 406.807C1249.78 406.807 1245 401.219 1245 394.325C1159.63 -40.1592 1264.8 316.798 1270.71 316.798Z" fill="white" fill-opacity="0.05"/>
<path fill-rule="evenodd" clip-rule="evenodd" d="M1182.04 654.462C1228.87 654.462 1350.32 609.612 1350.32 559.246C1350.32 550.247 1345.92 540.959 1338.44 531.771C1359.01 547.455 1373 564.437 1373 580.496C1373 630.863 1251.55 675.713 1204.72 675.713C1184.84 675.713 1180.38 667.625 1181.84 654.462C1181.91 654.462 1181.97 654.462 1182.04 654.462ZM1181.84 654.462C1151.93 654.381 1157.22 635.833 1164.82 609.229C1169.03 594.457 1173.96 577.202 1173.96 559.246C1173.96 539.238 1165.3 517.797 1157.79 499.218C1146.41 471.029 1137.69 449.431 1165.91 449.431C1204.38 449.431 1304.05 489.534 1338.44 531.771C1294.5 498.264 1220.5 470.681 1188.6 470.681C1160.37 470.681 1169.1 492.28 1180.48 520.469C1187.98 539.047 1196.64 560.489 1196.64 580.496C1196.64 598.453 1191.72 615.708 1187.5 630.48C1184.91 639.547 1182.59 647.678 1181.84 654.462Z" fill="white" fill-opacity="0.05"/>
<path d="M1270.71 585.798C1388.04 180.271 1335.48 577.669 1260.77 675.807C1260.77 670.907 1261.59 675.807 1255.68 675.807C1249.78 675.807 1245 670.219 1245 663.325C1159.63 228.841 1264.8 585.798 1270.71 585.798Z" fill="white" fill-opacity="0.05"/>
<path fill-rule="evenodd" clip-rule="evenodd" d="M1182.04 923.462C1228.87 923.462 1350.32 878.612 1350.32 828.246C1350.32 819.247 1345.92 809.959 1338.44 800.771C1359.01 816.455 1373 833.437 1373 849.496C1373 899.863 1251.55 944.713 1204.72 944.713C1184.84 944.713 1180.38 936.625 1181.84 923.462C1181.91 923.462 1181.97 923.462 1182.04 923.462ZM1181.84 923.462C1151.93 923.381 1157.22 904.833 1164.82 878.229C1169.03 863.457 1173.96 846.202 1173.96 828.246C1173.96 808.238 1165.3 786.797 1157.79 768.218C1146.41 740.029 1137.69 718.431 1165.91 718.431C1204.38 718.431 1304.05 758.534 1338.44 800.771C1294.5 767.264 1220.5 739.681 1188.6 739.681C1160.37 739.681 1169.1 761.28 1180.48 789.469C1187.98 808.047 1196.64 829.489 1196.64 849.496C1196.64 867.453 1191.72 884.708 1187.5 899.48C1184.91 908.547 1182.59 916.678 1181.84 923.462Z" fill="white" fill-opacity="0.05"/>
<path d="M1270.71 854.798C1388.04 449.271 1335.48 846.669 1260.77 944.807C1260.77 939.907 1261.59 944.807 1255.68 944.807C1249.78 944.807 1245 939.219 1245 932.325C1159.63 497.841 1264.8 854.798 1270.71 854.798Z" fill="white" fill-opacity="0.05"/>
<path fill-rule="evenodd" clip-rule="evenodd" d="M1471.04 385.462C1517.87 385.462 1639.32 340.612 1639.32 290.246C1639.32 281.247 1634.92 271.959 1627.44 262.771C1648.01 278.455 1662 295.437 1662 311.496C1662 361.863 1540.55 406.713 1493.72 406.713C1473.84 406.713 1469.38 398.625 1470.84 385.462C1470.91 385.462 1470.97 385.462 1471.04 385.462ZM1470.84 385.462C1440.93 385.381 1446.22 366.833 1453.82 340.229C1458.03 325.457 1462.96 308.202 1462.96 290.246C1462.96 270.238 1454.3 248.797 1446.79 230.218C1435.41 202.029 1426.69 180.431 1454.91 180.431C1493.38 180.431 1593.05 220.534 1627.44 262.771C1583.5 229.264 1509.5 201.681 1477.6 201.681C1449.37 201.681 1458.1 223.28 1469.48 251.469C1476.98 270.047 1485.64 291.489 1485.64 311.496C1485.64 329.453 1480.72 346.708 1476.5 361.48C1473.91 370.547 1471.59 378.678 1470.84 385.462Z" fill="white" fill-opacity="0.05"/>
<path d="M1559.71 316.798C1677.04 -88.7294 1624.48 308.669 1549.77 406.807C1549.77 401.907 1550.59 406.807 1544.68 406.807C1538.78 406.807 1534 401.219 1534 394.325C1448.63 -40.1592 1553.8 316.798 1559.71 316.798Z" fill="white" fill-opacity="0.05"/>
<path fill-rule="evenodd" clip-rule="evenodd" d="M1471.04 654.462C1517.87 654.462 1639.32 609.612 1639.32 559.246C1639.32 550.247 1634.92 540.959 1627.44 531.771C1648.01 547.455 1662 564.437 1662 580.496C1662 630.863 1540.55 675.713 1493.72 675.713C1473.84 675.713 1469.38 667.625 1470.84 654.462C1470.91 654.462 1470.97 654.462 1471.04 654.462ZM1470.84 654.462C1440.93 654.381 1446.22 635.833 1453.82 609.229C1458.03 594.457 1462.96 577.202 1462.96 559.246C1462.96 539.238 1454.3 517.797 1446.79 499.218C1435.41 471.029 1426.69 449.431 1454.91 449.431C1493.38 449.431 1593.05 489.534 1627.44 531.771C1583.5 498.264 1509.5 470.681 1477.6 470.681C1449.37 470.681 1458.1 492.28 1469.48 520.469C1476.98 539.047 1485.64 560.489 1485.64 580.496C1485.64 598.453 1480.72 615.708 1476.5 630.48C1473.91 639.547 1471.59 647.678 1470.84 654.462Z" fill="white" fill-opacity="0.05"/>
<path d="M1559.71 585.798C1677.04 180.271 1624.48 577.669 1549.77 675.807C1549.77 670.907 1550.59 675.807 1544.68 675.807C1538.78 675.807 1534 670.219 1534 663.325C1448.63 228.841 1553.8 585.798 1559.71 585.798Z" fill="white" fill-opacity="0.05"/>
<path fill-rule="evenodd" clip-rule="evenodd" d="M1471.04 923.462C1517.87 923.462 1639.32 878.612 1639.32 828.246C1639.32 819.247 1634.92 809.959 1627.44 800.771C1648.01 816.455 1662 833.437 1662 849.496C1662 899.863 1540.55 944.713 1493.72 944.713C1473.84 944.713 1469.38 936.625 1470.84 923.462C1470.91 923.462 1470.97 923.462 1471.04 923.462ZM1470.84 923.462C1440.93 923.381 1446.22 904.833 1453.82 878.229C1458.03 863.457 1462.96 846.202 1462.96 828.246C1462.96 808.238 1454.3 786.797 1446.79 768.218C1435.41 740.029 1426.69 718.431 1454.91 718.431C1493.38 718.431 1593.05 758.534 1627.44 800.771C1583.5 767.264 1509.5 739.681 1477.6 739.681C1449.37 739.681 1458.1 761.28 1469.48 789.469C1476.98 808.047 1485.64 829.489 1485.64 849.496C1485.64 867.453 1480.72 884.708 1476.5 899.48C1473.91 908.547 1471.59 916.678 1470.84 923.462Z" fill="white" fill-opacity="0.05"/>
<path d="M1559.71 854.798C1677.04 449.271 1624.48 846.669 1549.77 944.807C1549.77 939.907 1550.59 944.807 1544.68 944.807C1538.78 944.807 1534 939.219 1534 932.325C1448.63 497.841 1553.8 854.798 1559.71 854.798Z" fill="white" fill-opacity="0.05"/>
<path fill-rule="evenodd" clip-rule="evenodd" d="M15.039 113.462C61.8667 113.462 183.315 68.612 183.315 18.2456C183.315 9.24705 178.924 -0.0414505 171.443 -9.22903C192.014 6.4552 206 23.4375 206 39.4964C206 89.8627 84.5514 134.713 37.7237 134.713C17.8383 134.713 13.384 126.625 14.8411 113.462C14.9069 113.462 14.9728 113.462 15.039 113.462ZM14.8411 113.462C-15.0706 113.381 -9.77698 94.8325 -2.18445 68.2293C2.03139 53.4575 6.95604 36.2021 6.95604 18.2456C6.95604 -1.76225 -1.70269 -23.2034 -9.20531 -41.7817C-20.5892 -69.971 -29.3114 -91.5693 -1.08591 -91.5693C37.3754 -91.5693 137.053 -51.4656 171.443 -9.22903C127.497 -42.7359 53.4958 -70.3185 21.5988 -70.3185C-6.6267 -70.3185 2.09552 -48.7202 13.4794 -20.5309C20.982 -1.95259 29.6408 19.4885 29.6408 39.4964C29.6408 57.4529 24.7161 74.7083 20.5003 89.48C17.9126 98.5471 15.5919 106.678 14.8411 113.462Z" fill="white" fill-opacity="0.05"/>
<path d="M103.705 44.7978C221.04 -360.729 168.482 36.6695 93.774 134.807C93.774 129.907 94.5861 134.807 88.6842 134.807C82.7824 134.807 77.998 129.219 77.998 122.325C-7.36611 -312.159 97.8034 44.7978 103.705 44.7978Z" fill="white" fill-opacity="0.05"/>
<path fill-rule="evenodd" clip-rule="evenodd" d="M15.039 382.462C61.8667 382.462 183.315 337.612 183.315 287.246C183.315 278.247 178.924 268.959 171.443 259.771C192.014 275.455 206 292.437 206 308.496C206 358.863 84.5514 403.713 37.7237 403.713C17.8383 403.713 13.384 395.625 14.8411 382.462C14.9069 382.462 14.9728 382.462 15.039 382.462ZM14.8411 382.462C-15.0706 382.381 -9.77698 363.833 -2.18445 337.229C2.03139 322.457 6.95604 305.202 6.95604 287.246C6.95604 267.238 -1.70269 245.797 -9.20531 227.218C-20.5892 199.029 -29.3114 177.431 -1.08591 177.431C37.3754 177.431 137.053 217.534 171.443 259.771C127.497 226.264 53.4958 198.681 21.5988 198.681C-6.6267 198.681 2.09552 220.28 13.4794 248.469C20.982 267.047 29.6408 288.489 29.6408 308.496C29.6408 326.453 24.7161 343.708 20.5003 358.48C17.9126 367.547 15.5919 375.678 14.8411 382.462Z" fill="white" fill-opacity="0.05"/>
<path d="M103.705 313.798C221.04 -91.7294 168.482 305.669 93.774 403.807C93.774 398.907 94.5861 403.807 88.6842 403.807C82.7824 403.807 77.998 398.219 77.998 391.325C-7.36611 -43.1592 97.8034 313.798 103.705 313.798Z" fill="white" fill-opacity="0.05"/>
<path fill-rule="evenodd" clip-rule="evenodd" d="M15.039 651.462C61.8667 651.462 183.315 606.612 183.315 556.246C183.315 547.247 178.924 537.959 171.443 528.771C192.014 544.455 206 561.437 206 577.496C206 627.863 84.5514 672.713 37.7237 672.713C17.8383 672.713 13.384 664.625 14.8411 651.462C14.9069 651.462 14.9728 651.462 15.039 651.462ZM14.8411 651.462C-15.0706 651.381 -9.77698 632.833 -2.18445 606.229C2.03139 591.457 6.95604 574.202 6.95604 556.246C6.95604 536.238 -1.70269 514.797 -9.20531 496.218C-20.5892 468.029 -29.3114 446.431 -1.08591 446.431C37.3754 446.431 137.053 486.534 171.443 528.771C127.497 495.264 53.4958 467.681 21.5988 467.681C-6.6267 467.681 2.09552 489.28 13.4794 517.469C20.982 536.047 29.6408 557.489 29.6408 577.496C29.6408 595.453 24.7161 612.708 20.5003 627.48C17.9126 636.547 15.5919 644.678 14.8411 651.462Z" fill="white" fill-opacity="0.05"/>
<path d="M103.705 582.798C221.04 177.271 168.482 574.669 93.774 672.807C93.774 667.907 94.5861 672.807 88.6842 672.807C82.7824 672.807 77.998 667.219 77.998 660.325C-7.36611 225.841 97.8034 582.798 103.705 582.798Z" fill="white" fill-opacity="0.05"/>
<path fill-rule="evenodd" clip-rule="evenodd" d="M15.039 920.462C61.8667 920.462 183.315 875.612 183.315 825.246C183.315 816.247 178.924 806.959 171.443 797.771C192.014 813.455 206 830.437 206 846.496C206 896.863 84.5514 941.713 37.7237 941.713C17.8383 941.713 13.384 933.625 14.8411 920.462C14.9069 920.462 14.9728 920.462 15.039 920.462ZM14.8411 920.462C-15.0706 920.381 -9.77698 901.833 -2.18445 875.229C2.03139 860.457 6.95604 843.202 6.95604 825.246C6.95604 805.238 -1.70269 783.797 -9.20531 765.218C-20.5892 737.029 -29.3114 715.431 -1.08591 715.431C37.3754 715.431 137.053 755.534 171.443 797.771C127.497 764.264 53.4958 736.681 21.5988 736.681C-6.6267 736.681 2.09552 758.28 13.4794 786.469C20.982 805.047 29.6408 826.489 29.6408 846.496C29.6408 864.453 24.7161 881.708 20.5003 896.48C17.9126 905.547 15.5919 913.678 14.8411 920.462Z" fill="white" fill-opacity="0.05"/>
<path d="M103.705 851.798C221.04 446.271 168.482 843.669 93.774 941.807C93.774 936.907 94.5861 941.807 88.6842 941.807C82.7824 941.807 77.998 936.219 77.998 929.325C-7.36611 494.841 97.8034 851.798 103.705 851.798Z" fill="white" fill-opacity="0.05"/>
<path fill-rule="evenodd" clip-rule="evenodd" d="M15.039 1189.46C61.8667 1189.46 183.315 1144.61 183.315 1094.25C183.315 1085.25 178.924 1075.96 171.443 1066.77C192.014 1082.46 206 1099.44 206 1115.5C206 1165.86 84.5514 1210.71 37.7237 1210.71C17.8383 1210.71 13.384 1202.63 14.8411 1189.46C14.9069 1189.46 14.9728 1189.46 15.039 1189.46ZM14.8411 1189.46C-15.0706 1189.38 -9.77698 1170.83 -2.18445 1144.23C2.03139 1129.46 6.95604 1112.2 6.95604 1094.25C6.95604 1074.24 -1.70269 1052.8 -9.20531 1034.22C-20.5892 1006.03 -29.3114 984.431 -1.08591 984.431C37.3754 984.431 137.053 1024.53 171.443 1066.77C127.497 1033.26 53.4958 1005.68 21.5988 1005.68C-6.6267 1005.68 2.09552 1027.28 13.4794 1055.47C20.982 1074.05 29.6408 1095.49 29.6408 1115.5C29.6408 1133.45 24.7161 1150.71 20.5003 1165.48C17.9126 1174.55 15.5919 1182.68 14.8411 1189.46Z" fill="white" fill-opacity="0.05"/>
<path d="M103.705 1120.8C221.04 715.271 168.482 1112.67 93.774 1210.81C93.774 1205.91 94.5861 1210.81 88.6842 1210.81C82.7824 1210.81 77.998 1205.22 77.998 1198.33C-7.36611 763.841 97.8034 1120.8 103.705 1120.8Z" fill="white" fill-opacity="0.05"/>
<path fill-rule="evenodd" clip-rule="evenodd" d="M304.039 113.462C350.867 113.462 472.315 68.612 472.315 18.2456C472.315 9.24705 467.924 -0.0414505 460.443 -9.22903C481.014 6.4552 495 23.4375 495 39.4964C495 89.8627 373.551 134.713 326.724 134.713C306.838 134.713 302.384 126.625 303.841 113.462C303.907 113.462 303.973 113.462 304.039 113.462ZM303.841 113.462C273.929 113.381 279.223 94.8325 286.816 68.2293C291.031 53.4575 295.956 36.2021 295.956 18.2456C295.956 -1.76225 287.297 -23.2034 279.795 -41.7817C268.411 -69.971 259.689 -91.5693 287.914 -91.5693C326.375 -91.5693 426.053 -51.4656 460.443 -9.22903C416.497 -42.7359 342.496 -70.3185 310.599 -70.3185C282.373 -70.3185 291.096 -48.7202 302.479 -20.5309C309.982 -1.95259 318.641 19.4885 318.641 39.4964C318.641 57.4529 313.716 74.7083 309.5 89.48C306.913 98.5471 304.592 106.678 303.841 113.462Z" fill="white" fill-opacity="0.05"/>
<path d="M392.705 44.7978C510.04 -360.729 457.482 36.6695 382.774 134.807C382.774 129.907 383.586 134.807 377.684 134.807C371.782 134.807 366.998 129.219 366.998 122.325C281.634 -312.159 386.803 44.7978 392.705 44.7978Z" fill="white" fill-opacity="0.05"/>
<path fill-rule="evenodd" clip-rule="evenodd" d="M304.039 1189.46C350.867 1189.46 472.315 1144.61 472.315 1094.25C472.315 1085.25 467.924 1075.96 460.443 1066.77C481.014 1082.46 495 1099.44 495 1115.5C495 1165.86 373.551 1210.71 326.724 1210.71C306.838 1210.71 302.384 1202.63 303.841 1189.46C303.907 1189.46 303.973 1189.46 304.039 1189.46ZM303.841 1189.46C273.929 1189.38 279.223 1170.83 286.816 1144.23C291.031 1129.46 295.956 1112.2 295.956 1094.25C295.956 1074.24 287.297 1052.8 279.795 1034.22C268.411 1006.03 259.689 984.431 287.914 984.431C326.375 984.431 426.053 1024.53 460.443 1066.77C416.497 1033.26 342.496 1005.68 310.599 1005.68C282.373 1005.68 291.096 1027.28 302.479 1055.47C309.982 1074.05 318.641 1095.49 318.641 1115.5C318.641 1133.45 313.716 1150.71 309.5 1165.48C306.913 1174.55 304.592 1182.68 303.841 1189.46Z" fill="white" fill-opacity="0.05"/>
<path d="M392.705 1120.8C510.04 715.271 457.482 1112.67 382.774 1210.81C382.774 1205.91 383.586 1210.81 377.684 1210.81C371.782 1210.81 366.998 1205.22 366.998 1198.33C281.634 763.841 386.803 1120.8 392.705 1120.8Z" fill="white" fill-opacity="0.05"/>
<path fill-rule="evenodd" clip-rule="evenodd" d="M593.039 113.462C639.867 113.462 761.315 68.612 761.315 18.2456C761.315 9.24705 756.924 -0.0414505 749.443 -9.22903C770.014 6.4552 784 23.4375 784 39.4964C784 89.8627 662.551 134.713 615.724 134.713C595.838 134.713 591.384 126.625 592.841 113.462C592.907 113.462 592.973 113.462 593.039 113.462ZM592.841 113.462C562.929 113.381 568.223 94.8325 575.816 68.2293C580.031 53.4575 584.956 36.2021 584.956 18.2456C584.956 -1.76225 576.297 -23.2034 568.795 -41.7817C557.411 -69.971 548.689 -91.5693 576.914 -91.5693C615.375 -91.5693 715.053 -51.4656 749.443 -9.22903C705.497 -42.7359 631.496 -70.3185 599.599 -70.3185C571.373 -70.3185 580.096 -48.7202 591.479 -20.5309C598.982 -1.95259 607.641 19.4885 607.641 39.4964C607.641 57.4529 602.716 74.7083 598.5 89.48C595.913 98.5471 593.592 106.678 592.841 113.462Z" fill="white" fill-opacity="0.05"/>
<path d="M681.705 44.7978C799.04 -360.729 746.482 36.6695 671.774 134.807C671.774 129.907 672.586 134.807 666.684 134.807C660.782 134.807 655.998 129.219 655.998 122.325C570.634 -312.159 675.803 44.7978 681.705 44.7978Z" fill="white" fill-opacity="0.05"/>
<path fill-rule="evenodd" clip-rule="evenodd" d="M593.039 1189.46C639.867 1189.46 761.315 1144.61 761.315 1094.25C761.315 1085.25 756.924 1075.96 749.443 1066.77C770.014 1082.46 784 1099.44 784 1115.5C784 1165.86 662.551 1210.71 615.724 1210.71C595.838 1210.71 591.384 1202.63 592.841 1189.46C592.907 1189.46 592.973 1189.46 593.039 1189.46ZM592.841 1189.46C562.929 1189.38 568.223 1170.83 575.816 1144.23C580.031 1129.46 584.956 1112.2 584.956 1094.25C584.956 1074.24 576.297 1052.8 568.795 1034.22C557.411 1006.03 548.689 984.431 576.914 984.431C615.375 984.431 715.053 1024.53 749.443 1066.77C705.497 1033.26 631.496 1005.68 599.599 1005.68C571.373 1005.68 580.096 1027.28 591.479 1055.47C598.982 1074.05 607.641 1095.49 607.641 1115.5C607.641 1133.45 602.716 1150.71 598.5 1165.48C595.913 1174.55 593.592 1182.68 592.841 1189.46Z" fill="white" fill-opacity="0.05"/>
<path d="M681.705 1120.8C799.04 715.271 746.482 1112.67 671.774 1210.81C671.774 1205.91 672.586 1210.81 666.684 1210.81C660.782 1210.81 655.998 1205.22 655.998 1198.33C570.634 763.841 675.803 1120.8 681.705 1120.8Z" fill="white" fill-opacity="0.05"/>
<path fill-rule="evenodd" clip-rule="evenodd" d="M882.039 113.462C928.867 113.462 1050.32 68.612 1050.32 18.2456C1050.32 9.24705 1045.92 -0.0414505 1038.44 -9.22903C1059.01 6.4552 1073 23.4375 1073 39.4964C1073 89.8627 951.551 134.713 904.724 134.713C884.838 134.713 880.384 126.625 881.841 113.462C881.907 113.462 881.973 113.462 882.039 113.462ZM881.841 113.462C851.929 113.381 857.223 94.8325 864.816 68.2293C869.031 53.4575 873.956 36.2021 873.956 18.2456C873.956 -1.76225 865.297 -23.2034 857.795 -41.7817C846.411 -69.971 837.689 -91.5693 865.914 -91.5693C904.375 -91.5693 1004.05 -51.4656 1038.44 -9.22903C994.497 -42.7359 920.496 -70.3185 888.599 -70.3185C860.373 -70.3185 869.096 -48.7202 880.479 -20.5309C887.982 -1.95259 896.641 19.4885 896.641 39.4964C896.641 57.4529 891.716 74.7083 887.5 89.48C884.913 98.5471 882.592 106.678 881.841 113.462Z" fill="white" fill-opacity="0.05"/>
<path d="M970.705 44.7978C1088.04 -360.729 1035.48 36.6695 960.774 134.807C960.774 129.907 961.586 134.807 955.684 134.807C949.782 134.807 944.998 129.219 944.998 122.325C859.634 -312.159 964.803 44.7978 970.705 44.7978Z" fill="white" fill-opacity="0.05"/>
<path fill-rule="evenodd" clip-rule="evenodd" d="M882.039 1189.46C928.867 1189.46 1050.32 1144.61 1050.32 1094.25C1050.32 1085.25 1045.92 1075.96 1038.44 1066.77C1059.01 1082.46 1073 1099.44 1073 1115.5C1073 1165.86 951.551 1210.71 904.724 1210.71C884.838 1210.71 880.384 1202.63 881.841 1189.46C881.907 1189.46 881.973 1189.46 882.039 1189.46ZM881.841 1189.46C851.929 1189.38 857.223 1170.83 864.816 1144.23C869.031 1129.46 873.956 1112.2 873.956 1094.25C873.956 1074.24 865.297 1052.8 857.795 1034.22C846.411 1006.03 837.689 984.431 865.914 984.431C904.375 984.431 1004.05 1024.53 1038.44 1066.77C994.497 1033.26 920.496 1005.68 888.599 1005.68C860.373 1005.68 869.096 1027.28 880.479 1055.47C887.982 1074.05 896.641 1095.49 896.641 1115.5C896.641 1133.45 891.716 1150.71 887.5 1165.48C884.913 1174.55 882.592 1182.68 881.841 1189.46Z" fill="white" fill-opacity="0.05"/>
<path d="M970.705 1120.8C1088.04 715.271 1035.48 1112.67 960.774 1210.81C960.774 1205.91 961.586 1210.81 955.684 1210.81C949.782 1210.81 944.998 1205.22 944.998 1198.33C859.634 763.841 964.803 1120.8 970.705 1120.8Z" fill="white" fill-opacity="0.05"/>
<path fill-rule="evenodd" clip-rule="evenodd" d="M1171.04 113.462C1217.87 113.462 1339.32 68.612 1339.32 18.2456C1339.32 9.24705 1334.92 -0.0414505 1327.44 -9.22903C1348.01 6.4552 1362 23.4375 1362 39.4964C1362 89.8627 1240.55 134.713 1193.72 134.713C1173.84 134.713 1169.38 126.625 1170.84 113.462C1170.91 113.462 1170.97 113.462 1171.04 113.462ZM1170.84 113.462C1140.93 113.381 1146.22 94.8325 1153.82 68.2293C1158.03 53.4575 1162.96 36.2021 1162.96 18.2456C1162.96 -1.76225 1154.3 -23.2034 1146.79 -41.7817C1135.41 -69.971 1126.69 -91.5693 1154.91 -91.5693C1193.38 -91.5693 1293.05 -51.4656 1327.44 -9.22903C1283.5 -42.7359 1209.5 -70.3185 1177.6 -70.3185C1149.37 -70.3185 1158.1 -48.7202 1169.48 -20.5309C1176.98 -1.95259 1185.64 19.4885 1185.64 39.4964C1185.64 57.4529 1180.72 74.7083 1176.5 89.48C1173.91 98.5471 1171.59 106.678 1170.84 113.462Z" fill="white" fill-opacity="0.05"/>
<path d="M1259.71 44.7978C1377.04 -360.729 1324.48 36.6695 1249.77 134.807C1249.77 129.907 1250.59 134.807 1244.68 134.807C1238.78 134.807 1234 129.219 1234 122.325C1148.63 -312.159 1253.8 44.7978 1259.71 44.7978Z" fill="white" fill-opacity="0.05"/>
<path fill-rule="evenodd" clip-rule="evenodd" d="M1171.04 1189.46C1217.87 1189.46 1339.32 1144.61 1339.32 1094.25C1339.32 1085.25 1334.92 1075.96 1327.44 1066.77C1348.01 1082.46 1362 1099.44 1362 1115.5C1362 1165.86 1240.55 1210.71 1193.72 1210.71C1173.84 1210.71 1169.38 1202.63 1170.84 1189.46C1170.91 1189.46 1170.97 1189.46 1171.04 1189.46ZM1170.84 1189.46C1140.93 1189.38 1146.22 1170.83 1153.82 1144.23C1158.03 1129.46 1162.96 1112.2 1162.96 1094.25C1162.96 1074.24 1154.3 1052.8 1146.79 1034.22C1135.41 1006.03 1126.69 984.431 1154.91 984.431C1193.38 984.431 1293.05 1024.53 1327.44 1066.77C1283.5 1033.26 1209.5 1005.68 1177.6 1005.68C1149.37 1005.68 1158.1 1027.28 1169.48 1055.47C1176.98 1074.05 1185.64 1095.49 1185.64 1115.5C1185.64 1133.45 1180.72 1150.71 1176.5 1165.48C1173.91 1174.55 1171.59 1182.68 1170.84 1189.46Z" fill="white" fill-opacity="0.05"/>
<path d="M1259.71 1120.8C1377.04 715.271 1324.48 1112.67 1249.77 1210.81C1249.77 1205.91 1250.59 1210.81 1244.68 1210.81C1238.78 1210.81 1234 1205.22 1234 1198.33C1148.63 763.841 1253.8 1120.8 1259.71 1120.8Z" fill="white" fill-opacity="0.05"/>
<path fill-rule="evenodd" clip-rule="evenodd" d="M1460.04 113.462C1506.87 113.462 1628.32 68.612 1628.32 18.2456C1628.32 9.24705 1623.92 -0.0414505 1616.44 -9.22903C1637.01 6.4552 1651 23.4375 1651 39.4964C1651 89.8627 1529.55 134.713 1482.72 134.713C1462.84 134.713 1458.38 126.625 1459.84 113.462C1459.91 113.462 1459.97 113.462 1460.04 113.462ZM1459.84 113.462C1429.93 113.381 1435.22 94.8325 1442.82 68.2293C1447.03 53.4575 1451.96 36.2021 1451.96 18.2456C1451.96 -1.76225 1443.3 -23.2034 1435.79 -41.7817C1424.41 -69.971 1415.69 -91.5693 1443.91 -91.5693C1482.38 -91.5693 1582.05 -51.4656 1616.44 -9.22903C1572.5 -42.7359 1498.5 -70.3185 1466.6 -70.3185C1438.37 -70.3185 1447.1 -48.7202 1458.48 -20.5309C1465.98 -1.95259 1474.64 19.4885 1474.64 39.4964C1474.64 57.4529 1469.72 74.7083 1465.5 89.48C1462.91 98.5471 1460.59 106.678 1459.84 113.462Z" fill="white" fill-opacity="0.05"/>
<path d="M1548.71 44.7978C1666.04 -360.729 1613.48 36.6695 1538.77 134.807C1538.77 129.907 1539.59 134.807 1533.68 134.807C1527.78 134.807 1523 129.219 1523 122.325C1437.63 -312.159 1542.8 44.7978 1548.71 44.7978Z" fill="white" fill-opacity="0.05"/>
<path fill-rule="evenodd" clip-rule="evenodd" d="M1460.04 1189.46C1506.87 1189.46 1628.32 1144.61 1628.32 1094.25C1628.32 1085.25 1623.92 1075.96 1616.44 1066.77C1637.01 1082.46 1651 1099.44 1651 1115.5C1651 1165.86 1529.55 1210.71 1482.72 1210.71C1462.84 1210.71 1458.38 1202.63 1459.84 1189.46C1459.91 1189.46 1459.97 1189.46 1460.04 1189.46ZM1459.84 1189.46C1429.93 1189.38 1435.22 1170.83 1442.82 1144.23C1447.03 1129.46 1451.96 1112.2 1451.96 1094.25C1451.96 1074.24 1443.3 1052.8 1435.79 1034.22C1424.41 1006.03 1415.69 984.431 1443.91 984.431C1482.38 984.431 1582.05 1024.53 1616.44 1066.77C1572.5 1033.26 1498.5 1005.68 1466.6 1005.68C1438.37 1005.68 1447.1 1027.28 1458.48 1055.47C1465.98 1074.05 1474.64 1095.49 1474.64 1115.5C1474.64 1133.45 1469.72 1150.71 1465.5 1165.48C1462.91 1174.55 1460.59 1182.68 1459.84 1189.46Z" fill="white" fill-opacity="0.05"/>
<path d="M1548.71 1120.8C1666.04 715.271 1613.48 1112.67 1538.77 1210.81C1538.77 1205.91 1539.59 1210.81 1533.68 1210.81C1527.78 1210.81 1523 1205.22 1523 1198.33C1437.63 763.841 1542.8 1120.8 1548.71 1120.8Z" fill="white" fill-opacity="0.05"/>
<path fill-rule="evenodd" clip-rule="evenodd" d="M1749.04 113.462C1795.87 113.462 1917.32 68.612 1917.32 18.2456C1917.32 9.24705 1912.92 -0.0414505 1905.44 -9.22903C1926.01 6.4552 1940 23.4375 1940 39.4964C1940 89.8627 1818.55 134.713 1771.72 134.713C1751.84 134.713 1747.38 126.625 1748.84 113.462C1748.91 113.462 1748.97 113.462 1749.04 113.462ZM1748.84 113.462C1718.93 113.381 1724.22 94.8325 1731.82 68.2293C1736.03 53.4575 1740.96 36.2021 1740.96 18.2456C1740.96 -1.76225 1732.3 -23.2034 1724.79 -41.7817C1713.41 -69.971 1704.69 -91.5693 1732.91 -91.5693C1771.38 -91.5693 1871.05 -51.4656 1905.44 -9.22903C1861.5 -42.7359 1787.5 -70.3185 1755.6 -70.3185C1727.37 -70.3185 1736.1 -48.7202 1747.48 -20.5309C1754.98 -1.95259 1763.64 19.4885 1763.64 39.4964C1763.64 57.4529 1758.72 74.7083 1754.5 89.48C1751.91 98.5471 1749.59 106.678 1748.84 113.462Z" fill="white" fill-opacity="0.05"/>
<path d="M1837.71 44.7978C1955.04 -360.729 1902.48 36.6695 1827.77 134.807C1827.77 129.907 1828.59 134.807 1822.68 134.807C1816.78 134.807 1812 129.219 1812 122.325C1726.63 -312.159 1831.8 44.7978 1837.71 44.7978Z" fill="white" fill-opacity="0.05"/>
<path fill-rule="evenodd" clip-rule="evenodd" d="M1749.04 382.462C1795.87 382.462 1917.32 337.612 1917.32 287.246C1917.32 278.247 1912.92 268.959 1905.44 259.771C1926.01 275.455 1940 292.437 1940 308.496C1940 358.863 1818.55 403.713 1771.72 403.713C1751.84 403.713 1747.38 395.625 1748.84 382.462C1748.91 382.462 1748.97 382.462 1749.04 382.462ZM1748.84 382.462C1718.93 382.381 1724.22 363.833 1731.82 337.229C1736.03 322.457 1740.96 305.202 1740.96 287.246C1740.96 267.238 1732.3 245.797 1724.79 227.218C1713.41 199.029 1704.69 177.431 1732.91 177.431C1771.38 177.431 1871.05 217.534 1905.44 259.771C1861.5 226.264 1787.5 198.681 1755.6 198.681C1727.37 198.681 1736.1 220.28 1747.48 248.469C1754.98 267.047 1763.64 288.489 1763.64 308.496C1763.64 326.453 1758.72 343.708 1754.5 358.48C1751.91 367.547 1749.59 375.678 1748.84 382.462Z" fill="white" fill-opacity="0.05"/>
<path d="M1837.71 313.798C1955.04 -91.7294 1902.48 305.669 1827.77 403.807C1827.77 398.907 1828.59 403.807 1822.68 403.807C1816.78 403.807 1812 398.219 1812 391.325C1726.63 -43.1592 1831.8 313.798 1837.71 313.798Z" fill="white" fill-opacity="0.05"/>
<path fill-rule="evenodd" clip-rule="evenodd" d="M1749.04 651.462C1795.87 651.462 1917.32 606.612 1917.32 556.246C1917.32 547.247 1912.92 537.959 1905.44 528.771C1926.01 544.455 1940 561.437 1940 577.496C1940 627.863 1818.55 672.713 1771.72 672.713C1751.84 672.713 1747.38 664.625 1748.84 651.462C1748.91 651.462 1748.97 651.462 1749.04 651.462ZM1748.84 651.462C1718.93 651.381 1724.22 632.833 1731.82 606.229C1736.03 591.457 1740.96 574.202 1740.96 556.246C1740.96 536.238 1732.3 514.797 1724.79 496.218C1713.41 468.029 1704.69 446.431 1732.91 446.431C1771.38 446.431 1871.05 486.534 1905.44 528.771C1861.5 495.264 1787.5 467.681 1755.6 467.681C1727.37 467.681 1736.1 489.28 1747.48 517.469C1754.98 536.047 1763.64 557.489 1763.64 577.496C1763.64 595.453 1758.72 612.708 1754.5 627.48C1751.91 636.547 1749.59 644.678 1748.84 651.462Z" fill="white" fill-opacity="0.05"/>
<path d="M1837.71 582.798C1955.04 177.271 1902.48 574.669 1827.77 672.807C1827.77 667.907 1828.59 672.807 1822.68 672.807C1816.78 672.807 1812 667.219 1812 660.325C1726.63 225.841 1831.8 582.798 1837.71 582.798Z" fill="white" fill-opacity="0.05"/>
<path fill-rule="evenodd" clip-rule="evenodd" d="M1749.04 920.462C1795.87 920.462 1917.32 875.612 1917.32 825.246C1917.32 816.247 1912.92 806.959 1905.44 797.771C1926.01 813.455 1940 830.437 1940 846.496C1940 896.863 1818.55 941.713 1771.72 941.713C1751.84 941.713 1747.38 933.625 1748.84 920.462C1748.91 920.462 1748.97 920.462 1749.04 920.462ZM1748.84 920.462C1718.93 920.381 1724.22 901.833 1731.82 875.229C1736.03 860.457 1740.96 843.202 1740.96 825.246C1740.96 805.238 1732.3 783.797 1724.79 765.218C1713.41 737.029 1704.69 715.431 1732.91 715.431C1771.38 715.431 1871.05 755.534 1905.44 797.771C1861.5 764.264 1787.5 736.681 1755.6 736.681C1727.37 736.681 1736.1 758.28 1747.48 786.469C1754.98 805.047 1763.64 826.489 1763.64 846.496C1763.64 864.453 1758.72 881.708 1754.5 896.48C1751.91 905.547 1749.59 913.678 1748.84 920.462Z" fill="white" fill-opacity="0.05"/>
<path d="M1837.71 851.798C1955.04 446.271 1902.48 843.669 1827.77 941.807C1827.77 936.907 1828.59 941.807 1822.68 941.807C1816.78 941.807 1812 936.219 1812 929.325C1726.63 494.841 1831.8 851.798 1837.71 851.798Z" fill="white" fill-opacity="0.05"/>
<path fill-rule="evenodd" clip-rule="evenodd" d="M1749.04 1189.46C1795.87 1189.46 1917.32 1144.61 1917.32 1094.25C1917.32 1085.25 1912.92 1075.96 1905.44 1066.77C1926.01 1082.46 1940 1099.44 1940 1115.5C1940 1165.86 1818.55 1210.71 1771.72 1210.71C1751.84 1210.71 1747.38 1202.63 1748.84 1189.46C1748.91 1189.46 1748.97 1189.46 1749.04 1189.46ZM1748.84 1189.46C1718.93 1189.38 1724.22 1170.83 1731.82 1144.23C1736.03 1129.46 1740.96 1112.2 1740.96 1094.25C1740.96 1074.24 1732.3 1052.8 1724.79 1034.22C1713.41 1006.03 1704.69 984.431 1732.91 984.431C1771.38 984.431 1871.05 1024.53 1905.44 1066.77C1861.5 1033.26 1787.5 1005.68 1755.6 1005.68C1727.37 1005.68 1736.1 1027.28 1747.48 1055.47C1754.98 1074.05 1763.64 1095.49 1763.64 1115.5C1763.64 1133.45 1758.72 1150.71 1754.5 1165.48C1751.91 1174.55 1749.59 1182.68 1748.84 1189.46Z" fill="white" fill-opacity="0.05"/>
<path d="M1837.71 1120.8C1955.04 715.271 1902.48 1112.67 1827.77 1210.81C1827.77 1205.91 1828.59 1210.81 1822.68 1210.81C1816.78 1210.81 1812 1205.22 1812 1198.33C1726.63 763.841 1831.8 1120.8 1837.71 1120.8Z" fill="white" fill-opacity="0.05"/>
</g>
<defs>
<linearGradient id="paint0_linear_48_182" x1="960" y1="-37.5" x2="960" y2="1229" gradientUnits="userSpaceOnUse">
<stop stop-color="#1E7165"/>
<stop offset="1" stop-color="#1B3430"/>
</linearGradient>
<clipPath id="clip0_48_182">
<rect width="1920" height="1080" fill="white"/>
</clipPath>
</defs>
</svg>
